%TF.GenerationSoftware,KiCad,Pcbnew,10.0.5*%
%TF.CreationDate,2026-08-16T22:11:14+02:00*%
%TF.ProjectId,HHKBxPlanckV2,48484b42-7850-46c6-916e-636b56322e6b,rev?*%
%TF.SameCoordinates,Original*%
%TF.FileFunction,Soldermask,Top*%
%TF.FilePolarity,Negative*%
%FSLAX46Y46*%
G04 Gerber Fmt 4.6, Leading zero omitted, Abs format (unit mm)*
G04 Created by KiCad (PCBNEW 10.0.5) date 2026-08-16 22:11:14*
%MOMM*%
%LPD*%
G01*
G04 APERTURE LIST*
G04 Aperture macros list*
%AMRoundRect*
0 Rectangle with rounded corners*
0 $1 Rounding radius*
0 $2 $3 $4 $5 $6 $7 $8 $9 X,Y pos of 4 corners*
0 Add a 4 corners polygon primitive as box body*
4,1,4,$2,$3,$4,$5,$6,$7,$8,$9,$2,$3,0*
0 Add four circle primitives for the rounded corners*
1,1,$1+$1,$2,$3*
1,1,$1+$1,$4,$5*
1,1,$1+$1,$6,$7*
1,1,$1+$1,$8,$9*
0 Add four rect primitives between the rounded corners*
20,1,$1+$1,$2,$3,$4,$5,0*
20,1,$1+$1,$4,$5,$6,$7,0*
20,1,$1+$1,$6,$7,$8,$9,0*
20,1,$1+$1,$8,$9,$2,$3,0*%
G04 Aperture macros list end*
%ADD10C,4.400000*%
%ADD11C,3.300000*%
%ADD12C,2.600000*%
%ADD13RoundRect,0.650000X0.650000X-0.650000X0.650000X0.650000X-0.650000X0.650000X-0.650000X-0.650000X0*%
G04 APERTURE END LIST*
D10*
%TO.C,REF\u002A\u002A*%
X69056250Y-85725000D03*
%TD*%
%TO.C,REF\u002A\u002A*%
X216693750Y-85725000D03*
%TD*%
D11*
%TO.C,MX10*%
X212090000Y-33020000D03*
X205740000Y-35560000D03*
%TD*%
%TO.C,MX39*%
X145415000Y-90170000D03*
X139065000Y-92710000D03*
%TD*%
%TO.C,MX16*%
X97790000Y-52070000D03*
X91440000Y-54610000D03*
%TD*%
%TO.C,MX22*%
X212090000Y-52070000D03*
X205740000Y-54610000D03*
%TD*%
%TO.C,MX38*%
X116840000Y-90170000D03*
X110490000Y-92710000D03*
%TD*%
%TO.C,MX37*%
X97790000Y-90170000D03*
X91440000Y-92710000D03*
%TD*%
%TO.C,MX17*%
X116840000Y-52070000D03*
X110490000Y-54610000D03*
%TD*%
%TO.C,MX24*%
X250190000Y-52070000D03*
X243840000Y-54610000D03*
%TD*%
%TO.C,MX5*%
X116840000Y-33020000D03*
X110490000Y-35560000D03*
%TD*%
%TO.C,MX8*%
X173990000Y-33020000D03*
X167640000Y-35560000D03*
%TD*%
%TO.C,MX31*%
X154940000Y-71120000D03*
X148590000Y-73660000D03*
%TD*%
%TO.C,MX18*%
X135890000Y-52070000D03*
X129540000Y-54610000D03*
%TD*%
%TO.C,MX4*%
X97790000Y-33020000D03*
X91440000Y-35560000D03*
%TD*%
%TO.C,MX40*%
X173990000Y-90170000D03*
X167640000Y-92710000D03*
%TD*%
%TO.C,MX28*%
X97790000Y-71120000D03*
X91440000Y-73660000D03*
%TD*%
%TO.C,MX3*%
X78740000Y-33020000D03*
X72390000Y-35560000D03*
%TD*%
%TO.C,MX13*%
X40640000Y-52070000D03*
X34290000Y-54610000D03*
%TD*%
%TO.C,MX11*%
X231140000Y-33020000D03*
X224790000Y-35560000D03*
%TD*%
%TO.C,MX9*%
X193040000Y-33020000D03*
X186690000Y-35560000D03*
%TD*%
%TO.C,MX25*%
X40640000Y-71120000D03*
X34290000Y-73660000D03*
%TD*%
%TO.C,MX23*%
X231140000Y-52070000D03*
X224790000Y-54610000D03*
%TD*%
%TO.C,MX32*%
X173990000Y-71120000D03*
X167640000Y-73660000D03*
%TD*%
%TO.C,MX36*%
X250190000Y-71120000D03*
X243840000Y-73660000D03*
%TD*%
%TO.C,MX1*%
X40640000Y-33020000D03*
X34290000Y-35560000D03*
%TD*%
%TO.C,MX30*%
X135890000Y-71120000D03*
X129540000Y-73660000D03*
%TD*%
D10*
%TO.C,REF\u002A\u002A*%
X38100000Y-47625000D03*
%TD*%
D11*
%TO.C,MX34*%
X212090000Y-71120000D03*
X205740000Y-73660000D03*
%TD*%
%TO.C,MX33*%
X193040000Y-71120000D03*
X186690000Y-73660000D03*
%TD*%
D10*
%TO.C,REF\u002A\u002A*%
X247650000Y-47625000D03*
%TD*%
D11*
%TO.C,MX21*%
X193040000Y-52070000D03*
X186690000Y-54610000D03*
%TD*%
%TO.C,MX35*%
X231140000Y-71120000D03*
X224790000Y-73660000D03*
%TD*%
%TO.C,MX15*%
X78740000Y-52070000D03*
X72390000Y-54610000D03*
%TD*%
D10*
%TO.C,REF\u002A\u002A*%
X142875000Y-47625000D03*
%TD*%
D11*
%TO.C,MX27*%
X78740000Y-71120000D03*
X72390000Y-73660000D03*
%TD*%
%TO.C,MX2*%
X59690000Y-33020000D03*
X53340000Y-35560000D03*
%TD*%
%TO.C,MX6*%
X135890000Y-33020000D03*
X129540000Y-35560000D03*
%TD*%
%TO.C,MX7*%
X154940000Y-33020000D03*
X148590000Y-35560000D03*
%TD*%
%TO.C,MX19*%
X154940000Y-52070000D03*
X148590000Y-54610000D03*
%TD*%
%TO.C,MX29*%
X116840000Y-71120000D03*
X110490000Y-73660000D03*
%TD*%
%TO.C,MX14*%
X59690000Y-52070000D03*
X53340000Y-54610000D03*
%TD*%
%TO.C,MX26*%
X59690000Y-71120000D03*
X53340000Y-73660000D03*
%TD*%
%TO.C,MX12*%
X250190000Y-33020000D03*
X243840000Y-35560000D03*
%TD*%
%TO.C,MX41*%
X193040000Y-90170000D03*
X186690000Y-92710000D03*
%TD*%
D12*
%TO.C,B1*%
X83343750Y-92710000D03*
D13*
X83343750Y-97790000D03*
%TD*%
D11*
%TO.C,MX20*%
X173990000Y-52070000D03*
X167640000Y-54610000D03*
%TD*%
M02*
