M48
; DRILL file KiCad 10.0.5 date 2026-08-16T22:11:14
; FORMAT={-:-/ absolute / inch / decimal}
; #@! TF.CreationDate,2026-08-16T22:11:14+02:00
; #@! TF.GenerationSoftware,Kicad,Pcbnew,10.0.5
; #@! TF.FileFunction,Plated,1,2,PTH
FMAT,2
INCH
; #@! TA.AperFunction,Plated,PTH,ViaDrill
T1C0.0059
; #@! TA.AperFunction,Plated,PTH,ComponentDrill
T2C0.0394
; #@! TA.AperFunction,Plated,PTH,ComponentDrill
T3C0.0512
; #@! TA.AperFunction,Plated,PTH,ComponentDrill
T4C0.0866
; #@! TA.AperFunction,Plated,PTH,ComponentDrill
T5C0.1181
; #@! TA.AperFunction,Plated,PTH,ComponentDrill
T6C0.1200
%
G90
G05
T1
X1.1063Y-3.7835
X1.2008Y-1.4134
X1.2087Y-2.2047
X1.3071Y-3.315
X1.3976Y-2.4882
X1.5Y-1.6406
X1.5Y-2.3906
X1.5Y-3.1406
X1.5Y-3.8906
X1.563Y-2.6575
X1.752Y-1.311
X1.752Y-2.063
X1.752Y-2.811
X1.8268Y-1.4606
X1.8268Y-1.6102
X1.8268Y-2.2087
X1.8268Y-2.9606
X1.8583Y-2.3661
X1.8583Y-3.1102
X1.9094Y-2.0984
X1.9134Y-2.8465
X1.937Y-1.3819
X1.9409Y-2.7441
X1.9961Y-3.815
X2.1102Y-3.5787
X2.1102Y-3.6732
X2.1496Y-3.7795
X2.2244Y-2.5669
X2.2244Y-2.7441
X2.2283Y-3.4528
X2.2283Y-3.6142
X2.2283Y-4.0709
X2.2441Y-3.4921
X2.25Y-1.6406
X2.25Y-2.3906
X2.25Y-3.1406
X2.2795Y-3.3189
X2.2953Y-3.937
X2.3937Y-3.1772
X2.4213Y-4.0551
X2.5Y-1.311
X2.5Y-2.063
X2.5Y-2.811
X2.5787Y-1.4606
X2.5787Y-1.6102
X2.5787Y-2.2087
X2.5787Y-2.9606
X2.5906Y-2.3858
X2.622Y-4.1339
X2.6339Y-2.7598
X2.6457Y-2.0827
X2.6535Y-3.0866
X2.6772Y-2.3898
X2.6811Y-3.0591
X2.7441Y-4.0945
X2.7717Y-3.7559
X2.8268Y-1.9094
X2.9062Y-3.2344
X2.9173Y-2.752
X2.9803Y-3.7402
X3.0Y-1.6406
X3.0Y-2.3906
X3.0Y-3.1406
X3.0Y-3.8906
X3.1299Y-3.7205
X3.1654Y-3.5079
X3.248Y-3.0827
X3.252Y-1.311
X3.252Y-2.063
X3.252Y-2.811
X3.2598Y-2.3976
X3.2992Y-3.3346
X3.3268Y-1.4606
X3.3268Y-1.5906
X3.3268Y-2.2087
X3.3268Y-2.9606
X3.3386Y-3.3307
X3.3583Y-3.1102
X3.374Y-2.3031
X3.4094Y-2.374
X3.4685Y-2.3071
X3.4764Y-2.7441
X3.5039Y-3.0827
X3.5276Y-2.1575
X3.7283Y-3.4843
X3.7402Y-1.1063
X3.75Y-1.6406
X3.75Y-2.3906
X3.75Y-3.1406
X3.75Y-3.8906
X3.7953Y-3.3268
X3.9213Y-1.1063
X3.9449Y-3.3346
X3.9724Y-3.8583
X4.0Y-1.311
X4.0Y-2.063
X4.0Y-2.811
X4.0Y-3.563
X4.0039Y-3.0787
X4.0787Y-1.4606
X4.0787Y-1.5906
X4.0787Y-2.2087
X4.0787Y-2.9606
X4.0787Y-3.7087
X4.1024Y-3.4803
X4.1063Y-3.0984
X4.1614Y-2.8465
X4.1929Y-3.4921
X4.1969Y-3.5748
X4.2008Y-2.1496
X4.2244Y-2.311
X4.2244Y-2.7441
X4.2677Y-3.4331
X4.3031Y-1.6417
X4.3504Y-1.9685
X4.4764Y-3.4921
X4.4803Y-2.7362
X4.4921Y-1.1063
X4.5Y-1.6406
X4.5Y-2.3906
X4.5Y-3.1406
X4.5Y-3.8906
X4.6693Y-1.1063
X4.6732Y-2.3307
X4.7402Y-3.6024
X4.748Y-3.0827
X4.752Y-1.311
X4.752Y-2.063
X4.752Y-2.811
X4.7795Y-2.3071
X4.7953Y-2.3937
X4.7992Y-2.3504
X4.7992Y-3.1024
X4.8268Y-1.4606
X4.8268Y-2.2087
X4.8268Y-2.9606
X4.8268Y-3.7323
X4.8465Y-3.8386
X4.8819Y-1.4488
X4.8937Y-3.6693
X4.9409Y-2.7402
X4.9882Y-2.2047
X4.9921Y-1.4528
X4.9961Y-3.9961
X5.1457Y-3.7835
X5.2008Y-3.8701
X5.2047Y-1.7874
X5.2283Y-1.1496
X5.2362Y-1.6811
X5.25Y-1.6406
X5.25Y-2.3906
X5.25Y-3.1406
X5.25Y-3.8906
X5.2677Y-3.5945
X5.2795Y-1.6969
X5.3622Y-2.3937
X5.4724Y-3.1102
X5.5Y-1.311
X5.5Y-2.063
X5.5Y-2.811
X5.5787Y-1.4606
X5.5787Y-2.2087
X5.5787Y-2.9606
X5.5984Y-3.0906
X5.6024Y-3.5039
X5.6575Y-2.1969
X5.6772Y-3.3268
X5.7244Y-2.0945
X5.7717Y-2.7441
X5.8661Y-3.6024
X5.9528Y-3.7323
X5.9528Y-3.8622
X5.9803Y-1.6299
X5.9882Y-2.4331
X5.9921Y-1.8661
X6.0Y-1.6406
X6.0Y-2.3906
X6.0Y-3.1406
X6.0Y-3.8906
X6.0276Y-1.1063
X6.0512Y-3.7717
X6.0827Y-1.748
X6.1024Y-2.4803
X6.1102Y-3.6969
X6.1339Y-1.5709
X6.1339Y-1.6969
X6.1457Y-1.1811
X6.2205Y-3.2598
X6.2244Y-3.9449
X6.252Y-1.311
X6.252Y-2.063
X6.252Y-2.811
X6.3189Y-3.5984
X6.3268Y-1.4606
X6.3268Y-1.6102
X6.3268Y-2.2087
X6.3268Y-2.9606
X6.3504Y-1.685
X6.3583Y-2.7362
X6.3583Y-3.1181
X6.3661Y-1.2441
X6.3661Y-1.9921
X6.4094Y-1.4488
X6.4134Y-3.5591
X6.4331Y-2.4764
X6.4331Y-3.1102
X6.4488Y-3.7874
X6.4606Y-1.9843
X6.4764Y-2.3071
X6.4882Y-3.0748
X6.4961Y-2.0945
X6.5236Y-3.5472
X6.6063Y-3.2402
X6.626Y-3.0748
X6.6417Y-4.0787
X6.6929Y-2.4528
X6.7047Y-3.2244
X6.7244Y-1.2441
X6.75Y-1.6406
X6.75Y-2.3906
X6.75Y-3.1406
X6.75Y-3.8906
X6.7677Y-2.4094
X6.9409Y-2.5669
X6.9961Y-1.1063
X7.0Y-1.311
X7.0Y-2.063
X7.0Y-2.811
X7.0Y-3.563
X7.0276Y-1.811
X7.0354Y-2.563
X7.0591Y-3.8819
X7.0787Y-1.4606
X7.0787Y-2.2087
X7.0787Y-2.3622
X7.0787Y-2.9606
X7.0787Y-3.7087
X7.0984Y-3.0906
X7.1063Y-4.0236
X7.1102Y-2.7362
X7.1142Y-1.9921
X7.1496Y-2.3228
X7.1496Y-4.0748
X7.1575Y-1.4488
X7.1575Y-1.6102
X7.2008Y-2.4134
X7.2087Y-1.7323
X7.2087Y-1.811
X7.2362Y-3.0748
X7.3346Y-2.0039
X7.374Y-3.0748
X7.4764Y-2.374
X7.4764Y-3.4921
X7.5Y-1.6406
X7.5Y-2.3906
X7.5Y-2.4134
X7.5Y-3.1406
X7.5Y-3.8906
X7.5787Y-1.7441
X7.6299Y-1.6457
X7.752Y-1.311
X7.752Y-2.063
X7.752Y-2.811
X7.752Y-3.563
X7.811Y-3.248
X7.8268Y-1.4606
X7.8268Y-2.2087
X7.8268Y-2.3622
X7.8268Y-2.9606
X7.8268Y-3.7087
X7.8465Y-3.878
X7.878Y-3.5748
X7.8976Y-3.7677
X7.9094Y-3.2559
X7.9291Y-1.4528
X7.9567Y-2.2638
X7.9567Y-3.4724
X7.9882Y-3.7165
X7.9961Y-3.0827
X8.0118Y-3.2559
X8.0157Y-2.563
X8.0591Y-3.8307
X8.0866Y-3.6929
X8.0906Y-3.2441
X8.1024Y-3.7874
X8.1339Y-3.0827
X8.1378Y-3.7362
X8.1614Y-3.815
X8.1693Y-3.2559
X8.1811Y-3.3425
X8.2047Y-3.6575
X8.25Y-1.6406
X8.25Y-2.3906
X8.25Y-3.1406
X8.25Y-3.8906
X8.2559Y-3.252
X8.2598Y-3.2047
X8.2795Y-2.5591
X8.3071Y-3.9016
X8.3346Y-3.3307
X8.3386Y-2.4606
X8.3504Y-1.9016
X8.3622Y-3.685
X8.3661Y-1.8228
X8.374Y-3.0748
X8.3858Y-2.4094
X8.4134Y-3.2756
X8.4528Y-2.5748
X8.4528Y-3.5591
X8.4961Y-3.0866
X8.5Y-1.311
X8.5Y-2.063
X8.5Y-2.811
X8.5197Y-2.1969
X8.5787Y-1.4606
X8.5787Y-1.6102
X8.5787Y-2.2087
X8.5787Y-2.9606
X8.5984Y-2.378
X8.5984Y-3.9055
X8.5984Y-3.9685
X8.5984Y-4.0
X8.5984Y-4.0709
X8.6142Y-3.7717
X8.6142Y-3.8504
X8.6457Y-3.6654
X8.6732Y-3.6929
X8.6811Y-1.4528
X8.685Y-1.4764
X8.689Y-2.3858
X8.7047Y-1.5512
X8.7165Y-3.8504
X8.7283Y-2.1496
X8.7441Y-3.8504
X8.7559Y-3.7717
X8.7677Y-3.3189
X8.7756Y-3.6732
X8.7795Y-2.378
X8.7913Y-1.8937
X8.7913Y-3.4016
X8.8071Y-2.7874
X8.8386Y-3.9488
X8.8583Y-1.878
X8.8583Y-3.2008
X8.8701Y-2.3898
X8.874Y-3.374
X8.8937Y-3.4724
X8.8937Y-4.0
X8.9134Y-3.2874
X8.9213Y-3.7126
X8.9409Y-3.811
X8.9449Y-3.2913
X8.9488Y-1.9921
X8.9488Y-2.6693
X8.9646Y-2.8346
X8.9882Y-3.7992
X8.9921Y-3.9331
X9.0Y-1.6406
X9.0Y-2.3906
X9.0Y-3.1406
X9.0Y-3.8906
X9.0945Y-3.1102
X9.1614Y-3.7323
X9.1654Y-3.2992
X9.1969Y-3.5433
X9.2008Y-3.5197
X9.2126Y-2.6535
X9.2244Y-2.563
X9.2441Y-3.7362
X9.252Y-1.311
X9.252Y-2.063
X9.252Y-2.811
X9.3071Y-1.6299
X9.3268Y-1.4606
X9.3268Y-2.2087
X9.3268Y-2.3622
X9.3268Y-2.9606
X9.378Y-1.6929
X9.378Y-2.6299
X9.4055Y-3.063
X9.4094Y-2.8504
X9.4528Y-3.5433
X9.4606Y-1.4528
X9.4803Y-1.5669
X9.563Y-1.7047
X9.5866Y-2.5236
X9.5945Y-1.7087
X9.6496Y-1.5984
X9.6929Y-3.9291
X9.7323Y-3.8071
X9.75Y-1.6406
X9.75Y-2.3906
X9.75Y-3.1406
X9.7756Y-3.563
X9.7953Y-3.8701
X9.7992Y-1.7165
X9.8819Y-3.5276
X9.9528Y-1.8031
X9.9843Y-1.7165
X9.9843Y-1.9134
X10.0Y-1.311
X10.0Y-2.063
X10.0Y-2.811
X10.0118Y-1.5866
X10.0315Y-1.4134
X10.0433Y-1.689
X10.0472Y-2.9606
X10.0709Y-1.8583
X10.0709Y-2.2087
T2
X1.1781Y-3.4219
X1.1781Y-4.0219
X1.2781Y-3.4219
X1.2781Y-4.0219
X1.3781Y-3.4219
X1.3781Y-4.0219
X1.4781Y-3.4219
X1.4781Y-4.0219
X1.5781Y-3.4219
X1.5781Y-4.0219
X1.6781Y-3.4219
X1.6781Y-4.0219
X1.7781Y-3.4219
X1.7781Y-4.0219
X1.8781Y-3.4219
X1.8781Y-4.0219
X1.9781Y-3.4219
X1.9781Y-4.0219
X2.0781Y-3.4219
X2.0781Y-4.0219
X2.1781Y-3.4219
X2.1781Y-4.0219
X2.2563Y-3.7009
X2.2563Y-3.8009
X2.2563Y-3.9009
X2.2781Y-3.4219
X2.2781Y-4.0219
X2.3781Y-3.4219
X2.3781Y-4.0219
X8.8438Y-3.4219
X8.8438Y-4.0219
X8.9437Y-3.4219
X8.9437Y-4.0219
X8.9656Y-3.5429
X8.9656Y-3.6429
X8.9656Y-3.7429
X9.0437Y-3.4219
X9.0437Y-4.0219
X9.1437Y-3.4219
X9.1437Y-4.0219
X9.2438Y-3.4219
X9.2438Y-4.0219
X9.3438Y-3.4219
X9.3438Y-4.0219
X9.4437Y-3.4219
X9.4437Y-4.0219
X9.5437Y-3.4219
X9.5437Y-4.0219
X9.6437Y-3.4219
X9.6437Y-4.0219
X9.7438Y-3.4219
X9.7438Y-4.0219
X9.8438Y-3.4219
X9.8438Y-4.0219
X9.9437Y-3.4219
X9.9437Y-4.0219
X10.0437Y-3.4219
X10.0437Y-4.0219
T3
X3.2812Y-3.65
X3.2812Y-3.85
T4
X1.5Y-1.875
X2.7188Y-3.375
X5.625Y-1.875
X8.5312Y-3.375
X9.75Y-1.875
T5
X1.35Y-1.4
X1.35Y-2.15
X1.35Y-2.9
X1.6Y-1.3
X1.6Y-2.05
X1.6Y-2.8
X2.1Y-1.4
X2.1Y-2.15
X2.1Y-2.9
X2.35Y-1.3
X2.35Y-2.05
X2.35Y-2.8
X2.85Y-1.4
X2.85Y-2.15
X2.85Y-2.9
X3.1Y-1.3
X3.1Y-2.05
X3.1Y-2.8
X3.6Y-1.4
X3.6Y-2.15
X3.6Y-2.9
X3.6Y-3.65
X3.85Y-1.3
X3.85Y-2.05
X3.85Y-2.8
X3.85Y-3.55
X4.35Y-1.4
X4.35Y-2.15
X4.35Y-2.9
X4.35Y-3.65
X4.6Y-1.3
X4.6Y-2.05
X4.6Y-2.8
X4.6Y-3.55
X5.1Y-1.4
X5.1Y-2.15
X5.1Y-2.9
X5.35Y-1.3
X5.35Y-2.05
X5.35Y-2.8
X5.475Y-3.65
X5.725Y-3.55
X5.85Y-1.4
X5.85Y-2.15
X5.85Y-2.9
X6.1Y-1.3
X6.1Y-2.05
X6.1Y-2.8
X6.6Y-1.4
X6.6Y-2.15
X6.6Y-2.9
X6.6Y-3.65
X6.85Y-1.3
X6.85Y-2.05
X6.85Y-2.8
X6.85Y-3.55
X7.35Y-1.4
X7.35Y-2.15
X7.35Y-2.9
X7.35Y-3.65
X7.6Y-1.3
X7.6Y-2.05
X7.6Y-2.8
X7.6Y-3.55
X8.1Y-1.4
X8.1Y-2.15
X8.1Y-2.9
X8.35Y-1.3
X8.35Y-2.05
X8.35Y-2.8
X8.85Y-1.4
X8.85Y-2.15
X8.85Y-2.9
X9.1Y-1.3
X9.1Y-2.05
X9.1Y-2.8
X9.6Y-1.4
X9.6Y-2.15
X9.6Y-2.9
X9.85Y-1.3
X9.85Y-2.05
X9.85Y-2.8
T6
X5.1562Y-4.025
X6.0938Y-4.025
M30
